<svg id="Layer_1" data-name="Layer 1" xmlns="http://www.w3.org/2000/svg" viewBox="0 0 328.84 138.16"><defs><style>.cls-1{fill:#fff;}</style></defs><title>logo</title><path class="cls-1" d="M42.64,47.61a11.87,11.87,0,0,1,9.49,4.23q4.69,5.5,2.55,18L43.9,71.75q1.13-7-2.27-9.29a6.81,6.81,0,0,0-3.82-1,13.19,13.19,0,0,0-2.41.24,14.54,14.54,0,0,0-7.59,3.81,14.31,14.31,0,0,0-4.18,7.56c-.6,2.79-.18,4.71,1.27,5.78.93.73,3.08,1.39,6.47,2l8.81,1.61q5.82,1.07,8.23,4.12,3.77,4.76,1.74,15.29a38.54,38.54,0,0,1-9.35,18.85,29.66,29.66,0,0,1-18.07,9.62,30.72,30.72,0,0,1-4.43.35Q10.71,130.69,7,126q-4.71-6-2-18.07l10.92-1.76q-.63,5.25.36,7.65,1.47,3.49,6.23,3.5a15.91,15.91,0,0,0,2.56-.22,19.53,19.53,0,0,0,7-2.33,14.11,14.11,0,0,0,6.76-9.88c.53-2.59.13-4.47-1.18-5.63s-3.59-1.94-6.82-2.43l-5.51-.88q-8.1-1.32-10.63-4Q10.43,87.49,13,76.06a41.43,41.43,0,0,1,9.14-18.29A28.61,28.61,0,0,1,39,48a19.55,19.55,0,0,1,3.62-.36m0-4a23.15,23.15,0,0,0-4.36.43A32.62,32.62,0,0,0,19.1,55.17a45.56,45.56,0,0,0-10,20c-2,9.1-1.15,15.49,2.73,19.52,2.34,2.47,6.44,4.12,12.87,5.17l5.52.88c3.27.5,4.45,1.21,4.8,1.47a3.92,3.92,0,0,1-.09,1.85,10.18,10.18,0,0,1-4.88,7.23,15.89,15.89,0,0,1-5.6,1.82,13.08,13.08,0,0,1-1.95.17c-2.1,0-2.37-.66-2.54-1s-.54-1.72-.08-5.63l.64-5.27-5.24.85L4.35,104l-2.67.43L1.09,107C-1,116.3-.08,123.52,3.84,128.46c3.28,4.14,8.14,6.23,14.46,6.23a33.29,33.29,0,0,0,5-.4,33.69,33.69,0,0,0,20.44-10.88,42.54,42.54,0,0,0,10.31-20.78c1.61-8.3.78-14.37-2.53-18.54-2.22-2.8-5.8-4.67-10.64-5.56l-8.8-1.62a20.38,20.38,0,0,1-4.71-1.2,5,5,0,0,1,.15-1.79,10.35,10.35,0,0,1,3-5.5,10.64,10.64,0,0,1,5.56-2.79,10.06,10.06,0,0,1,1.7-.17,3.18,3.18,0,0,1,1.63.35c.74.49,1,2.58.51,5.3l-.9,5.55,5.54-1,10.79-1.9,2.77-.48.48-2.78c1.66-9.66.53-16.63-3.46-21.29a15.78,15.78,0,0,0-12.53-5.63Z"/><path class="cls-1" d="M99.41,59.09,89.7,118.32l-10.45,1.57,1.43-8.34c-.13.2-.48.78-1,1.74a16.94,16.94,0,0,1-1.83,2.6,24.57,24.57,0,0,1-5.64,5.17,16.18,16.18,0,0,1-8,2.19q-7,0-8.23-7.68c-.53-3.26-.16-8.22,1.1-14.91L63.7,65.42l10.62-1.88L67.9,98.91a25.25,25.25,0,0,0-.55,7.41c.37,2.45,1.65,3.68,3.82,3.68a6.94,6.94,0,0,0,1.08-.09c3.62-.57,6.48-3.08,8.55-7.54a39.18,39.18,0,0,0,2.61-9.32L88.9,61l10.51-1.86m4.87-4.92-5.56,1L88.21,57l-2.78.49L85,60.28l-5.5,32.1a35.18,35.18,0,0,1-2.31,8.34c-2.19,4.72-4.69,5.11-5.52,5.24l-.27,0a1.64,1.64,0,0,1,0-.27c-.1-.64-.16-2.3.53-6.09l6.41-35.38,1-5.65-5.66,1L63,61.48,60.28,62l-.51,2.72L53.11,99.92c-1.36,7.21-1.73,12.54-1.12,16.29,1.11,7,5.55,11,12.18,11a19.56,19.56,0,0,0,2.88-.23,19.29,19.29,0,0,0,7.19-2.54l.19-.11-.05.3,5.47-.83,10.44-1.57,2.88-.43.48-2.88,9.71-59.22.92-5.57Z"/><path class="cls-1" d="M134.05,51.77A8.31,8.31,0,0,1,141,55.09q3.25,4.21,1.74,15.53l-5.4,40.54-11,1.65,5.12-36.48a23,23,0,0,0,.18-7.12c-.5-2.48-1.84-3.72-4-3.72a6.94,6.94,0,0,0-1.17.1q-5.28.91-8.24,8a39.26,39.26,0,0,0-2.39,9.26L111,115.12l-10.75,1.62,9.33-59.33,10-1.78-1.3,8.7A40.81,40.81,0,0,1,123,57a14.9,14.9,0,0,1,8.61-5,13.64,13.64,0,0,1,2.4-.22m0-4h0a17.87,17.87,0,0,0-9.83,3l-5.33.94-10,1.78L106,54l-.45,2.82-9.32,59.33-.85,5.39,5.4-.81,10.74-1.62,2.93-.43.44-2.93,4.84-32.29a36,36,0,0,1,2.13-8.31c2.12-5,4.46-5.44,5.23-5.58a2.82,2.82,0,0,1,.42,0,2.72,2.72,0,0,1,.15.51,18.9,18.9,0,0,1-.22,5.78l-5.12,36.48-.74,5.3,5.3-.79,11-1.66,3-.44.4-3,5.4-40.53c1.16-8.73.33-14.78-2.54-18.5a12.33,12.33,0,0,0-10.11-4.88Z"/><path class="cls-1" d="M178.67,43.92c3.71,0,6.69,2,9,6q4.05,7.06,2.5,22.4-1.65,16.17-7.42,25.4t-13.56,10.36a11.47,11.47,0,0,1-1.81.14,7.67,7.67,0,0,1-6-2.53,15.81,15.81,0,0,1-2.79-5.31L154.79,132,144,133.47,154.7,49.3l9.93-1.76-1.08,9a37,37,0,0,1,4.35-6.86q3.94-4.68,8.74-5.54a12,12,0,0,1,2-.18M166.78,95.25a6.87,6.87,0,0,0,1.09-.09q4.51-.69,7.44-6.21a39.28,39.28,0,0,0,3.86-14.07,30.46,30.46,0,0,0-.78-12.12q-1.32-4.35-5-4.35a7.19,7.19,0,0,0-1.27.11q-5.73,1-8.86,9.53a51.09,51.09,0,0,0-2.45,11.19q-1.28,10.58,2,14.25a5.15,5.15,0,0,0,4,1.76m11.89-55.33h0a15.23,15.23,0,0,0-2.73.25A16.72,16.72,0,0,0,169.21,43l0-.35-5.32,1L154,45.36l-2.9.52-.37,2.92L140,133l-.66,5.19,5.18-.73,10.79-1.51,3.05-.43.36-3.06,2.62-21.7a12.12,12.12,0,0,0,6,1.48,16.67,16.67,0,0,0,2.4-.18c6.36-1,11.86-5,16.36-12.18,4.15-6.65,6.85-15.77,8-27.13,1.14-11.18.16-19.29-3-24.8-3.77-6.61-8.85-8-12.44-8ZM166.78,91.25a1.21,1.21,0,0,1-1-.46c-.59-.67-2-3.15-1-11.07A47.57,47.57,0,0,1,167,69.41c1.54-4.21,3.49-6.56,5.78-6.95a3.27,3.27,0,0,1,.59-.05c.39,0,.75,0,1.21,1.51a26.63,26.63,0,0,1,.63,10.52,35.41,35.41,0,0,1-3.41,12.64c-2,3.74-3.89,4-4.52,4.13a2.82,2.82,0,0,1-.48,0Z"/><path class="cls-1" d="M219.7,36.63a13.93,13.93,0,0,1,7.88,2.29q4.77,3.15,3.91,14.36L229.3,81.75q-.24,3-.48,7.16a11.9,11.9,0,0,0,.3,4.23,3.43,3.43,0,0,0,1.44,1.64l-.18,2.39-11.69,1.76a22.56,22.56,0,0,1-.39-3.42c0-1.08,0-2.31,0-3.7a37.07,37.07,0,0,1-5.67,7,15.1,15.1,0,0,1-8.16,4.19,12.55,12.55,0,0,1-1.8.14,8.4,8.4,0,0,1-7-3.51q-3.19-4.2-2.32-12.92,1.13-11.31,7.4-17.32a26.7,26.7,0,0,1,9.67-5.49l3.67-1.28a15.4,15.4,0,0,0,4.32-2.11,6.72,6.72,0,0,0,2.65-5q.31-3.81-1.29-5a4.9,4.9,0,0,0-2.91-.76,11.8,11.8,0,0,0-2,.19,7.63,7.63,0,0,0-5.57,3.74,19.34,19.34,0,0,0-2,5.9l-10.12,1.7a39.34,39.34,0,0,1,4.24-13.73A20.35,20.35,0,0,1,216.3,37a19.4,19.4,0,0,1,3.4-.32m.18,32.43A15.88,15.88,0,0,1,217.7,71a17,17,0,0,1-2.93,1.57l-2.47,1.07a16.78,16.78,0,0,0-5.07,3,11,11,0,0,0-3.13,7.23c-.26,2.75.07,4.65,1,5.72a3.61,3.61,0,0,0,2.84,1.31,4.93,4.93,0,0,0,.75-.06,11.65,11.65,0,0,0,6.71-4.06q3.21-3.51,4-11.65l.5-6m-.18-36.43a23.52,23.52,0,0,0-4.1.38,24.31,24.31,0,0,0-17.74,12.62,43.57,43.57,0,0,0-4.7,15.13l-.75,5.4,5.38-.91,2-.33A23.2,23.2,0,0,0,198,66.46c-4.87,4.68-7.77,11.34-8.61,19.81-.69,6.92.33,12.07,3.11,15.73a12.39,12.39,0,0,0,10.21,5.1,16.47,16.47,0,0,0,2.39-.19,18.91,18.91,0,0,0,10.1-5l.29,1.58,3.82-.58L231,101.13l3.16-.48.24-3.18.18-2.39.19-2.5-1.91-1.11a19.36,19.36,0,0,1,0-2.36c.17-2.75.32-5.12.47-7.06l2.2-28.46c.7-9.13-1.16-15-5.69-18a18,18,0,0,0-10.09-2.95Zm-8.3,26.65a14.06,14.06,0,0,1,1.32-3.58,3.61,3.61,0,0,1,2.77-1.79,8.12,8.12,0,0,1,1.36-.13h.23a7.22,7.22,0,0,1,0,1.38A2.78,2.78,0,0,1,216,57.31a11.68,11.68,0,0,1-3.2,1.5l-1.35.47Zm-3.27,27.54a8.65,8.65,0,0,1,0-2.64A7.15,7.15,0,0,1,210,79.46a12.52,12.52,0,0,1,3.83-2.18l1.31-.57C214.5,81,213.34,83,212.43,84a8.06,8.06,0,0,1-4.3,2.79Z"/><path class="cls-1" d="M254.72,14.93,253.6,32.36,260,31.22l-.71,11.66L252.85,44l-2.12,33c-.17,2.56-.06,4.12.32,4.69.24.35.84.53,1.78.53a13.3,13.3,0,0,0,2.06-.19c.32,0,.67-.11,1-.19s.72-.16,1.08-.25l-.74,12.24-5.11,1.05a19.63,19.63,0,0,1-3.88.43q-4.47,0-6.26-2.87c-1.07-1.68-1.47-4.47-1.2-8.35l2.71-38.34-5.57,1,.86-11.58,5.53-1,1.23-17.37,10.15-1.87M259,10.06,254,11l-10.15,1.87-3.05.56-.21,3.09-1,14.26-2.46.43-3.06.54-.23,3.1L233,46.43l-.38,5.11,5-.87.54-.09-2.35,33.25c-.34,4.8.25,8.33,1.82,10.78,1.33,2.14,4.1,4.72,9.63,4.72a23.75,23.75,0,0,0,4.67-.51l5.12-1,3-.62.19-3.06L261,81.85l.33-5.51L256,77.74q-.43.12-.87.21l-.43.08c0-.23,0-.48,0-.75l1.92-29.88,3.37-.57,3.13-.54.19-3.17.7-11.66.31-5.06-5,.88-1.42.25.79-12.34.33-5.13Z"/><path class="cls-1" d="M278.52,4.86l-.76,15.21L267.3,22l.85-15.14,10.37-1.95m-1.13,22.72-3.15,63-10.9,1.63,3.54-62.77,10.51-1.86M282.77,0l-5,.93L267.41,2.87l-3.08.58-.18,3.13-.85,15.15-.24,4.32h0l-.18,3.17L259.35,92l-.28,4.91,4.87-.73,10.9-1.64,3.24-.48.16-3.27,3.14-63,.25-5,.13-2.5.76-15.2L282.77,0Z"/><path class="cls-1" d="M308.53,20.3q7.77,0,11.76,7.73,4.81,9.27,4.53,23.13A57.76,57.76,0,0,1,319.13,76q-5.44,10.77-16.07,12.35a19.87,19.87,0,0,1-3,.24q-8.31,0-12.39-7.76-4.74-9.08-4.11-23a60,60,0,0,1,6.12-24.55q5.44-10.92,15.65-12.75a18.27,18.27,0,0,1,3.21-.3m-6.24,54.25a8.28,8.28,0,0,0,1.2-.09q4.68-.73,7.34-6.32T313.75,53q.25-9.59-2.06-14.34c-1.31-2.72-3.19-4.07-5.62-4.07a7,7,0,0,0-1.26.11q-4.57.78-7.24,6.35t-3.05,15.09q-.37,9.53,2,14.29,2,4.16,5.82,4.15m6.24-58.25a22.34,22.34,0,0,0-3.91.37c-8.08,1.43-14.31,6.44-18.53,14.89a64.11,64.11,0,0,0-6.53,26.16c-.45,9.94,1.08,18.35,4.55,25,3.41,6.48,8.92,9.91,15.94,9.91a25.11,25.11,0,0,0,3.6-.28c8.41-1.26,14.82-6.14,19.05-14.51a61.9,61.9,0,0,0,6.12-26.6c.21-9.86-1.46-18.29-5-25-3.33-6.47-8.63-9.89-15.31-9.89Zm-6.24,54.25c-.48,0-1.3,0-2.23-1.9s-1.82-5.34-1.54-12.39c.22-5.76,1.11-10.3,2.65-13.5,1.78-3.71,3.69-4,4.32-4.15a3,3,0,0,1,.58,0c.4,0,1.14,0,2,1.82s1.85,5.37,1.65,12.47c-.16,5.81-1,10.38-2.53,13.58s-3.23,3.9-4.34,4.07a4.27,4.27,0,0,1-.59,0Z"/></svg>