<svg id="Layer_1" data-name="Layer 1" xmlns="http://www.w3.org/2000/svg" viewBox="0 0 322.85 130.99"><defs><style>.cls-1{fill:#fff;}</style></defs><title>logo</title><path class="cls-1" d="M39.65,44a11.85,11.85,0,0,1,9.49,4.24q4.71,5.49,2.56,18L40.91,68.1q1.14-7-2.27-9.29a6.81,6.81,0,0,0-3.82-1,13.28,13.28,0,0,0-2.41.24,14.54,14.54,0,0,0-7.59,3.81,14.31,14.31,0,0,0-4.18,7.56c-.6,2.79-.18,4.71,1.27,5.79.93.72,3.08,1.38,6.48,2l8.8,1.61q5.82,1.08,8.23,4.12,3.77,4.75,1.74,15.29a38.54,38.54,0,0,1-9.35,18.85,29.66,29.66,0,0,1-18.07,9.62,30.72,30.72,0,0,1-4.43.35Q7.72,127,4,122.33q-4.73-6-2-18.07l10.93-1.76q-.63,5.25.36,7.65c1,2.33,3.05,3.5,6.22,3.5a15.91,15.91,0,0,0,2.56-.22,19.72,19.72,0,0,0,7-2.32,14.19,14.19,0,0,0,6.77-9.89c.52-2.59.12-4.47-1.18-5.63s-3.59-1.93-6.83-2.43l-5.51-.88c-5.4-.88-8.94-2.2-10.62-4Q7.44,83.83,10,72.42a41.51,41.51,0,0,1,9.14-18.3A28.61,28.61,0,0,1,36,44.32,19.55,19.55,0,0,1,39.65,44m0-4a24.1,24.1,0,0,0-4.36.43A32.57,32.57,0,0,0,16.12,51.52a45.58,45.58,0,0,0-10,20C4.07,80.64,5,87,8.84,91.06c2.34,2.48,6.44,4.12,12.87,5.17l5.52.88c3.28.5,4.45,1.21,4.8,1.47a4,4,0,0,1-.08,1.85,10.26,10.26,0,0,1-4.89,7.24,15.83,15.83,0,0,1-5.6,1.81,13,13,0,0,1-1.95.17c-2.1,0-2.37-.65-2.53-1s-.55-1.72-.08-5.64l.63-5.26-5.24.84L1.36,100.31l-2.67.43-.59,2.64C-4,112.66-3.06,119.87.85,124.82,4.13,129,9,131,15.31,131a33.52,33.52,0,0,0,5-.4,33.61,33.61,0,0,0,20.43-10.88A42.54,42.54,0,0,0,51.08,99c1.61-8.3.78-14.37-2.53-18.53-2.22-2.81-5.8-4.68-10.63-5.57l-8.81-1.62a20,20,0,0,1-4.7-1.2,4.88,4.88,0,0,1,.14-1.79,10.37,10.37,0,0,1,3-5.5A10.61,10.61,0,0,1,33.12,62a10.06,10.06,0,0,1,1.7-.17,3.18,3.18,0,0,1,1.63.35c.74.49.95,2.58.51,5.3L36.07,73l5.53-1,10.79-1.9,2.77-.48.48-2.78c1.66-9.66.53-16.62-3.46-21.28A15.75,15.75,0,0,0,39.65,40Z"/><path class="cls-1" d="M96.43,55.44l-9.72,59.23-10.45,1.57,1.43-8.34c-.13.2-.47.78-1,1.74a16.27,16.27,0,0,1-1.83,2.6,24.37,24.37,0,0,1-5.64,5.17,16.18,16.18,0,0,1-8,2.19q-7,0-8.23-7.68Q52.16,107,54.06,97l6.65-35.24,10.62-1.88L64.91,95.27a25.08,25.08,0,0,0-.54,7.4q.55,3.67,3.81,3.68a6.94,6.94,0,0,0,1.08-.09q5.44-.84,8.55-7.54a39.18,39.18,0,0,0,2.61-9.32l5.49-32.09,10.52-1.87m4.86-4.92-5.56,1L85.22,53.37l-2.77.49L82,56.63l-5.49,32.1a35.24,35.24,0,0,1-2.32,8.35c-2.18,4.71-4.69,5.1-5.52,5.23l-.27,0c0-.07,0-.16-.05-.26-.1-.65-.16-2.31.53-6.1L75.26,60.6l1-5.65-5.66,1L60,57.83l-2.72.48L56.78,61,50.13,96.27c-1.37,7.22-1.73,12.54-1.13,16.29,1.11,7,5.55,11,12.18,11a20,20,0,0,0,10.07-2.77,1.18,1.18,0,0,0,.19-.11l0,.3,5.47-.83,10.45-1.57,2.88-.43.47-2.87,9.71-59.23.92-5.57Z"/><path class="cls-1" d="M131.06,48.12A8.29,8.29,0,0,1,138,51.45q3.25,4.2,1.75,15.52l-5.4,40.54-11,1.65,5.12-36.48a23,23,0,0,0,.18-7.12q-.75-3.72-4-3.72a7.11,7.11,0,0,0-1.17.1q-5.26.91-8.24,8a39.26,39.26,0,0,0-2.39,9.26L108,111.47l-10.75,1.62,9.33-59.33,10-1.78-1.31,8.7a40.06,40.06,0,0,1,4.77-7.28,14.84,14.84,0,0,1,8.6-5.06,13.64,13.64,0,0,1,2.4-.22m0-4h0a18.14,18.14,0,0,0-9.83,3L115.9,48l-10,1.78-2.81.5-.44,2.82-9.33,59.33-.84,5.38,5.39-.81,10.75-1.61,2.92-.44.44-2.93,4.85-32.29a35.55,35.55,0,0,1,2.12-8.31c2.12-5,4.46-5.44,5.23-5.57a2.08,2.08,0,0,1,.43,0,3.88,3.88,0,0,1,.14.52,18.82,18.82,0,0,1-.22,5.77l-5.12,36.48-.74,5.31,5.3-.8,11-1.66,3-.44.4-3,5.4-40.54c1.16-8.73.33-14.78-2.54-18.5a12.32,12.32,0,0,0-10.11-4.88Z"/><path class="cls-1" d="M175.68,40.27q5.56,0,9,6,4.05,7.07,2.49,22.4-1.65,16.17-7.42,25.4t-13.56,10.37a12.8,12.8,0,0,1-1.81.14,7.68,7.68,0,0,1-6-2.54,15.63,15.63,0,0,1-2.78-5.31l-3.81,31.59L141,129.82l10.69-84.17,9.93-1.75-1.08,9A37.52,37.52,0,0,1,164.91,46q4-4.68,8.75-5.53a10.94,10.94,0,0,1,2-.19M163.79,91.6a8.51,8.51,0,0,0,1.1-.08q4.5-.7,7.44-6.21a39.4,39.4,0,0,0,3.85-14.08,30.46,30.46,0,0,0-.78-12.12q-1.32-4.35-5-4.35a7,7,0,0,0-1.26.11q-5.74,1-8.87,9.53a51.23,51.23,0,0,0-2.44,11.2q-1.28,10.56,2,14.25a5.18,5.18,0,0,0,4,1.75m11.89-55.33h0a15,15,0,0,0-2.72.25,16.71,16.71,0,0,0-6.74,2.84l0-.34L161,40,151,41.72l-2.9.51-.37,2.92-10.7,84.17-.66,5.19,5.19-.73,10.78-1.51,3-.43.37-3.05,2.61-21.71a12.16,12.16,0,0,0,6,1.49,16.72,16.72,0,0,0,2.4-.19c6.36-.95,11.86-5,16.36-12.18,4.16-6.65,6.85-15.77,8-27.13,1.14-11.18.16-19.29-3-24.8-3.77-6.61-8.84-8-12.44-8ZM163.79,87.6a1.19,1.19,0,0,1-1-.46c-.6-.66-2-3.15-1-11.06A47.59,47.59,0,0,1,164,65.76c1.54-4.21,3.49-6.55,5.78-7a4.54,4.54,0,0,1,.59-.05c.39,0,.76,0,1.21,1.51a26.63,26.63,0,0,1,.63,10.52,35.35,35.35,0,0,1-3.41,12.64c-2,3.74-3.89,4-4.52,4.13a2.74,2.74,0,0,1-.48,0Z"/><path class="cls-1" d="M216.72,33a14.05,14.05,0,0,1,7.88,2.29q4.77,3.15,3.9,14.36L226.31,78.1q-.23,3-.48,7.16a11.59,11.59,0,0,0,.31,4.23,3.32,3.32,0,0,0,1.43,1.64l-.18,2.39L215.7,95.28a23.91,23.91,0,0,1-.39-3.42c0-1.07,0-2.31,0-3.7a37.51,37.51,0,0,1-5.68,7,15.08,15.08,0,0,1-8.16,4.18,12.55,12.55,0,0,1-1.8.14,8.4,8.4,0,0,1-7-3.51q-3.19-4.2-2.32-12.92,1.13-11.31,7.4-17.32a26.67,26.67,0,0,1,9.68-5.49l3.66-1.27a15.65,15.65,0,0,0,4.32-2.12,6.67,6.67,0,0,0,2.65-5q.31-3.81-1.29-5a4.83,4.83,0,0,0-2.91-.77,11.8,11.8,0,0,0-2,.19,7.63,7.63,0,0,0-5.57,3.74,19.18,19.18,0,0,0-2,5.9l-10.13,1.7a39.55,39.55,0,0,1,4.24-13.73A20.35,20.35,0,0,1,213.31,33.3a19.51,19.51,0,0,1,3.41-.32m.17,32.43a14.7,14.7,0,0,1-2.18,1.89,17,17,0,0,1-2.93,1.57l-2.47,1.07a16.78,16.78,0,0,0-5.07,3,11,11,0,0,0-3.13,7.23c-.26,2.75.07,4.65,1,5.72a3.59,3.59,0,0,0,2.83,1.31,4.93,4.93,0,0,0,.75-.06,11.67,11.67,0,0,0,6.72-4q3.19-3.52,4-11.66l.5-6M216.72,29a23.63,23.63,0,0,0-4.11.38A24.31,24.31,0,0,0,194.87,42a43.63,43.63,0,0,0-4.7,15.13l-.75,5.4,5.38-.9,2-.34a21.31,21.31,0,0,0-1.8,1.54c-4.88,4.68-7.78,11.34-8.62,19.82-.69,6.92.33,12.06,3.11,15.73a12.42,12.42,0,0,0,10.21,5.09,15.39,15.39,0,0,0,2.4-.19,18.9,18.9,0,0,0,10.09-5l.3,1.57,3.82-.58L228,97.48l3.15-.48.24-3.18.18-2.39.19-2.5-1.9-1.11a15.73,15.73,0,0,1,0-2.36c.16-2.75.32-5.12.47-7l2.19-28.47c.71-9.13-1.16-15-5.69-18A18,18,0,0,0,216.72,29Zm-8.3,26.65a13.85,13.85,0,0,1,1.31-3.58,3.62,3.62,0,0,1,2.78-1.79,7.92,7.92,0,0,1,1.35-.13h.23a7.8,7.8,0,0,1,0,1.37A2.77,2.77,0,0,1,213,53.66a11.68,11.68,0,0,1-3.2,1.5l-1.34.47Zm-3.27,27.54a8.18,8.18,0,0,1-.06-2.64A7.2,7.2,0,0,1,207,75.81a12.64,12.64,0,0,1,3.84-2.18l1.3-.57c-.65,4.24-1.8,6.32-2.72,7.32a8,8,0,0,1-4.29,2.79Z"/><path class="cls-1" d="M251.73,11.28l-1.12,17.43,6.44-1.14-.7,11.67-6.49,1.11-2.12,33c-.17,2.56-.06,4.13.33,4.69.24.35.83.53,1.77.53a13.3,13.3,0,0,0,2.06-.19c.33-.05.67-.11,1-.19s.72-.16,1.07-.25l-.74,12.24-5.11,1a19.62,19.62,0,0,1-3.87.43c-3,0-5.08-1-6.27-2.87-1.07-1.68-1.47-4.47-1.2-8.35l2.71-38.34-5.57,1,.86-11.58,5.53-1,1.23-17.36,10.15-1.88m4.32-4.87-5,.94L240.85,9.22l-3,.56-.22,3.09-1,14.26-2.46.43-3.06.54-.23,3.11L230,42.78l-.37,5.11,5-.87.54-.09-2.35,33.25c-.34,4.81.26,8.33,1.82,10.78,1.33,2.14,4.1,4.72,9.64,4.72a23.74,23.74,0,0,0,4.66-.51l5.12-1,3-.62.18-3.06L258,78.2l.33-5.51L253,74.09q-.42.12-.87.21l-.43.08c0-.23,0-.48,0-.75l1.92-29.87,3.37-.58,3.13-.54.19-3.16.7-11.67.31-5.06-5,.88-1.42.25.79-12.34.33-5.13Z"/><path class="cls-1" d="M275.53,1.22l-.76,15.2L264.31,18.3l.85-15.14,10.37-1.94M274.4,23.93l-3.14,63-10.9,1.64,3.53-62.78,10.51-1.86m5.38-27.58-5,.93-10.38,2-3.08.57-.17,3.13-.86,15.15-.24,4.32h0l-.18,3.17-3.53,62.77-.27,4.91,4.86-.73,10.9-1.64,3.24-.48.16-3.27,3.15-63,.25-5,.12-2.5.76-15.2.25-5.07Z"/><path class="cls-1" d="M305.54,16.66q7.77,0,11.77,7.72,4.81,9.27,4.53,23.13a57.72,57.72,0,0,1-5.7,24.88q-5.44,10.77-16.06,12.35a20.09,20.09,0,0,1-3,.24q-8.31,0-12.39-7.76-4.74-9.07-4.1-23a60,60,0,0,1,6.11-24.55Q292.13,18.78,302.33,17a19.23,19.23,0,0,1,3.21-.29M299.31,70.9a8.25,8.25,0,0,0,1.19-.09q4.68-.74,7.35-6.32t2.91-15.17Q311,39.74,308.71,35q-2-4.06-5.63-4.07a7.83,7.83,0,0,0-1.25.11c-3.06.52-5.47,2.65-7.25,6.36s-2.8,8.73-3.05,15.08.4,11.11,2,14.29q2,4.16,5.83,4.15m6.23-58.24a22.31,22.31,0,0,0-3.91.36c-8.08,1.43-14.31,6.45-18.53,14.89a64.43,64.43,0,0,0-6.53,26.16c-.45,9.94,1.08,18.35,4.56,25C284.53,85.56,290,89,297.06,89a25.35,25.35,0,0,0,3.61-.28c8.4-1.26,14.81-6.14,19-14.5a62,62,0,0,0,6.12-26.61c.22-9.86-1.46-18.29-5-25.05-3.34-6.46-8.64-9.88-15.32-9.88ZM299.31,66.9c-.49,0-1.3,0-2.23-1.9s-1.82-5.34-1.55-12.39c.22-5.76,1.12-10.3,2.66-13.5,1.77-3.71,3.69-4,4.31-4.15a4.26,4.26,0,0,1,.58-.05c.4,0,1.14,0,2,1.82s1.85,5.37,1.65,12.48c-.16,5.8-1,10.37-2.53,13.57s-3.23,3.9-4.34,4.07a3.1,3.1,0,0,1-.58.05Z"/></svg>