<svg id="Layer_1" data-name="Layer 1" xmlns="http://www.w3.org/2000/svg" viewBox="0 0 322.85 130.99"><defs><style>.cls-1{fill:none;stroke:#fff;stroke-miterlimit:10;stroke-width:2px;}</style></defs><title>logo</title><path class="cls-1" d="M12.93,102.5q-.63,5.25.36,7.65,1.82,4.36,8.78,3.28a19.72,19.72,0,0,0,7-2.32,14.19,14.19,0,0,0,6.77-9.89c.52-2.59.12-4.47-1.18-5.63s-3.59-1.93-6.83-2.43l-5.51-.88c-5.4-.88-8.94-2.2-10.62-4Q7.44,83.83,10,72.42a41.51,41.51,0,0,1,9.14-18.3A28.61,28.61,0,0,1,36,44.32q8.46-1.59,13.11,3.88t2.56,18L40.91,68.1q1.14-7-2.27-9.29-2.27-1.48-6.23-.76a14.54,14.54,0,0,0-7.59,3.81,14.31,14.31,0,0,0-4.18,7.56c-.6,2.79-.18,4.71,1.27,5.79.93.72,3.08,1.38,6.48,2l8.8,1.61q5.82,1.08,8.23,4.12,3.77,4.75,1.74,15.29a38.54,38.54,0,0,1-9.35,18.85,29.66,29.66,0,0,1-18.07,9.62q-11,1.63-15.75-4.36T2,104.26Z"/><path class="cls-1" d="M71.33,59.89,64.91,95.27a25.08,25.08,0,0,0-.54,7.4c.42,2.83,2.06,4,4.89,3.59q5.44-.84,8.55-7.54a39.18,39.18,0,0,0,2.61-9.32l5.49-32.09,10.52-1.87-9.72,59.23-10.45,1.57,1.43-8.34c-.13.2-.47.78-1,1.74a16.27,16.27,0,0,1-1.83,2.6,24.37,24.37,0,0,1-5.64,5.17,15.59,15.59,0,0,1-5.72,2q-9.11,1.36-10.52-7.5Q52.16,107,54.06,97l6.65-35.24Z"/><path class="cls-1" d="M138,51.45q3.25,4.2,1.75,15.52l-5.4,40.54-11,1.65,5.12-36.48a23,23,0,0,0,.18-7.12q-.89-4.35-5.17-3.62-5.26.91-8.24,8a39.26,39.26,0,0,0-2.39,9.26L108,111.47l-10.75,1.62,9.33-59.33,10-1.78-1.31,8.7a40.06,40.06,0,0,1,4.77-7.28,14.84,14.84,0,0,1,8.6-5.06Q134.78,47.26,138,51.45Z"/><path class="cls-1" d="M184.66,46.26q4.05,7.07,2.49,22.4-1.65,16.17-7.42,25.4t-13.56,10.37c-3.29.49-5.89-.31-7.78-2.4a15.63,15.63,0,0,1-2.78-5.31l-3.81,31.59L141,129.82l10.69-84.17,9.93-1.75-1.08,9A37.52,37.52,0,0,1,164.91,46q4-4.68,8.75-5.53Q180.64,39.22,184.66,46.26ZM175.4,59.11q-1.53-5.05-6.3-4.24-5.74,1-8.87,9.53a51.23,51.23,0,0,0-2.44,11.2q-1.28,10.56,2,14.25a5.37,5.37,0,0,0,5.08,1.67q4.5-.7,7.44-6.21a39.4,39.4,0,0,0,3.85-14.08A30.46,30.46,0,0,0,175.4,59.11Z"/><path class="cls-1" d="M211.09,58.94a15.65,15.65,0,0,0,4.32-2.12,6.67,6.67,0,0,0,2.65-5q.31-3.81-1.29-5c-1.07-.77-2.71-1-4.94-.58a7.63,7.63,0,0,0-5.57,3.74,19.18,19.18,0,0,0-2,5.9l-10.13,1.7a39.55,39.55,0,0,1,4.24-13.73A20.35,20.35,0,0,1,213.31,33.3a15,15,0,0,1,11.29,2q4.77,3.15,3.9,14.36L226.31,78.1q-.23,3-.48,7.16a11.59,11.59,0,0,0,.31,4.23,3.32,3.32,0,0,0,1.43,1.64l-.18,2.39L215.7,95.28a23.91,23.91,0,0,1-.39-3.42c0-1.07,0-2.31,0-3.7a37.51,37.51,0,0,1-5.68,7,15.08,15.08,0,0,1-8.16,4.18,8.69,8.69,0,0,1-8.82-3.37q-3.19-4.2-2.32-12.92,1.13-11.31,7.4-17.32a26.67,26.67,0,0,1,9.68-5.49Zm5.8,6.47a14.7,14.7,0,0,1-2.18,1.89,17,17,0,0,1-2.93,1.57l-2.47,1.07a16.78,16.78,0,0,0-5.07,3,11,11,0,0,0-3.13,7.23c-.26,2.75.07,4.65,1,5.72a3.68,3.68,0,0,0,3.58,1.25,11.67,11.67,0,0,0,6.72-4q3.19-3.52,4-11.66Z"/><path class="cls-1" d="M234,43.08l.86-11.58,5.53-1,1.23-17.36,10.15-1.88-1.12,17.43,6.44-1.14-.7,11.67-6.49,1.11-2.12,33c-.17,2.56-.06,4.13.33,4.69s1.66.68,3.83.34c.33-.05.67-.11,1-.19s.72-.16,1.07-.25l-.74,12.24-5.11,1Q240.51,92.8,238,88.81c-1.07-1.68-1.47-4.47-1.2-8.35l2.71-38.34Z"/><path class="cls-1" d="M274.77,16.42,264.31,18.3l.85-15.14,10.37-1.94Zm-10.88,9.37,10.51-1.86-3.14,63-10.9,1.64Z"/><path class="cls-1" d="M316.14,72.39q-5.44,10.77-16.06,12.35t-15.41-7.52q-4.74-9.07-4.1-23a60,60,0,0,1,6.11-24.55Q292.13,18.78,302.33,17t15,7.43q4.81,9.27,4.53,23.13A57.72,57.72,0,0,1,316.14,72.39Zm-8.29-7.9q2.64-5.58,2.91-15.17T308.71,35q-2.31-4.74-6.88-4c-3.06.52-5.47,2.65-7.25,6.36s-2.8,8.73-3.05,15.08.4,11.11,2,14.29,3.9,4.54,7,4.06S306.07,68.22,307.85,64.49Z"/></svg>